<svg xmlns="http://www.w3.org/2000/svg" viewBox="0 0 512 512" role="img" aria-label="海鸥直播">
  <defs>
    <linearGradient id="bg" x1="0" y1="0" x2="1" y2="1">
      <stop offset="0" stop-color="#ff8a2a"/>
      <stop offset="1" stop-color="#e85d00"/>
    </linearGradient>
  </defs>
  <rect width="512" height="512" rx="112" fill="url(#bg)"/>
  <circle cx="256" cy="252" r="178" fill="rgba(255,255,255,.12)"/>
  <path d="M86 268c54-72 120-102 176-47 45-57 112-75 170-47-68 9-117 43-149 101-45-51-107-48-197-7Z" fill="#fff"/>
  <path d="M134 312c58-30 108-34 151 0 39-26 78-33 121-15-67 6-108 28-139 62-38-31-82-43-133-47Z" fill="#fff" opacity=".92"/>
  <path d="M220 204v116l104-58-104-58Z" fill="#242745"/>
</svg>
