<svg xmlns="http://www.w3.org/2000/svg" width="230" height="64" viewBox="0 0 230 64" role="img" aria-label="海鸥直播 S6.LOL">
  <defs>
    <linearGradient id="bg" x1="0" y1="0" x2="1" y2="1">
      <stop offset="0" stop-color="#171827"/>
      <stop offset="1" stop-color="#080617"/>
    </linearGradient>
    <linearGradient id="orange" x1="0" y1="0" x2="1" y2="1">
      <stop offset="0" stop-color="#ffb13b"/>
      <stop offset="1" stop-color="#ff6a00"/>
    </linearGradient>
    <filter id="softShadow" x="-20%" y="-20%" width="140%" height="140%">
      <feDropShadow dx="0" dy="4" stdDeviation="3" flood-color="#000" flood-opacity=".28"/>
    </filter>
  </defs>

  <rect width="230" height="64" rx="10" fill="url(#bg)"/>

  <g transform="translate(14 10)" filter="url(#softShadow)">
    <circle cx="22" cy="22" r="22" fill="url(#orange)"/>
    <path d="M7 25c9-10 18-14 28-9 4 2 7 5 10 9-9-5-16-5-21 2-2 3-3 6-3 10-3-10-8-15-14-12z" fill="#fff"/>
    <path d="M20 24l13 8-13 8z" fill="#151827" opacity=".96"/>
    <path d="M10 24c8-5 15-5 22 1" fill="none" stroke="#fff" stroke-width="3" stroke-linecap="round" opacity=".72"/>
  </g>

  <text x="68" y="29" font-family="Arial,'Microsoft YaHei','PingFang SC',sans-serif" font-size="25" font-weight="900" letter-spacing="1" fill="#fff">海鸥直播</text>
  <text x="70" y="49" font-family="Arial,'Microsoft YaHei',sans-serif" font-size="16" font-weight="900" letter-spacing=".8" fill="#ff8a2a">S6.LOL</text>
</svg>
